<?xml version="1.0" standalone="no"?>
<!DOCTYPE svg PUBLIC "-//W3C//DTD SVG 1.1//EN" "http://www.w3.org/Graphics/SVG/1.1/DTD/svg11.dtd" >
<svg>
<metadata>
Created by FontForge 20110222 at Mon Mar  7 13:01:17 2011
 By www-data
Copyright mxz123 2010
</metadata>
<defs>
<font id="Yautja" horiz-adv-x="352" >
  <font-face 
    font-family="Yautja"
    font-weight="400"
    font-stretch="normal"
    units-per-em="1024"
    panose-1="0 0 4 0 0 0 0 0 0 0"
    ascent="819"
    descent="-205"
    x-height="288"
    cap-height="416"
    bbox="0 -96 448 640"
    underline-thickness="51"
    underline-position="127"
    unicode-range="U+0020-007A"
  />
    <missing-glyph />
    <glyph glyph-name="space" unicode=" " horiz-adv-x="160" 
d="M16 12q-2 0 -3 1t-1 3q0 1 1 2t3 1q1 0 2 -1t1 -2q0 -2 -1 -3t-2 -1v0zM48 12q-2 0 -3 1t-1 3q0 1 1 2t3 1q1 0 2 -1t1 -2q0 -2 -1 -3t-2 -1v0zM80 12q-2 0 -3 1t-1 3q0 1 1 2t3 1q1 0 2 -1t1 -2q0 -2 -1 -3t-2 -1v0zM112 12q-2 0 -3 1t-1 3q0 1 1 2t3 1q1 0 2 -1t1 -2
q0 -2 -1 -3t-2 -1v0z" />
    <glyph glyph-name="comma" unicode="," horiz-adv-x="128" 
d="M96 -96q0 14 -10 23q-9 9 -22 9q0 14 -10 23q-9 9 -22 9v64h64v-128v0z" />
    <glyph glyph-name="period" unicode="." horiz-adv-x="96" 
d="M0 0v64h64v-64h-64z" />
    <glyph glyph-name="zero" unicode="0" horiz-adv-x="320" 
d="M224 64v256h-160v-256h160zM16 0q-7 0 -12 4q-4 5 -4 12v352q0 6 4 11q5 5 12 5h256q6 0 11 -5t5 -11v-352q0 -7 -5 -12q-5 -4 -11 -4h-256z" />
    <glyph glyph-name="one" unicode="1" horiz-adv-x="96" 
d="M32 0q-14 0 -23 9t-9 23v448q0 13 9 22q9 10 23 10q13 0 22 -10q10 -9 10 -22v-448q0 -14 -10 -23q-9 -9 -22 -9v0z" />
    <glyph glyph-name="two" unicode="2" horiz-adv-x="320" 
d="M0 0v96l224 224v96h-160v-96h-64v160h288v-160l-256 -256h256v-64h-288z" />
    <glyph glyph-name="three" unicode="3" horiz-adv-x="288" 
d="M16 0q-7 0 -12 4q-4 5 -4 12v32q0 6 4 11q5 5 12 5h176v128h-144q-7 0 -12 4q-4 5 -4 12v32q0 6 4 11q5 5 12 5h144v128h-176q-7 0 -12 4q-4 5 -4 12v32q0 6 4 11q5 5 12 5h224q6 0 11 -5t5 -11v-416q0 -7 -5 -12q-5 -4 -11 -4h-224z" />
    <glyph glyph-name="four" unicode="4" horiz-adv-x="416" 
d="M192 224v160l-160 -160h160zM192 0v160h-192v96l160 160h96v-192h128v-64h-128v-160h-64z" />
    <glyph glyph-name="A" unicode="A" horiz-adv-x="288" 
d="M32 0q-14 0 -23 9t-9 23v96q0 13 9 22q9 10 23 10q13 0 22 -10q10 -9 10 -22v-96q0 -14 -10 -23q-9 -9 -22 -9v0zM96 160q-14 0 -23 9t-9 23l96 96q13 0 22 -10q10 -9 10 -22l-96 -96v0zM160 288l-96 96q0 13 9 22q9 10 23 10l96 -96q0 -14 -10 -23q-9 -9 -22 -9v0z
M160 416q-14 0 -23 9t-9 23l96 96q13 0 22 -10q10 -9 10 -22l-96 -96v0zM64 416q-14 0 -23 9t-9 23v96q0 13 9 22q9 10 23 10q13 0 22 -10q10 -9 10 -22v-96q0 -14 -10 -23q-9 -9 -22 -9v0z" />
    <glyph glyph-name="B" unicode="B" horiz-adv-x="288" 
d="M160 160l-96 96q0 13 9 22q9 10 23 10l96 -96q0 -14 -10 -23q-9 -9 -22 -9v0zM128 320q-14 0 -23 9t-9 23q0 13 9 22q9 10 23 10h96q13 0 22 -10q10 -9 10 -22q0 -14 -10 -23q-9 -9 -22 -9h-96zM32 352q-14 0 -23 9t-9 23v96q0 13 9 22q9 10 23 10q13 0 22 -10
q10 -9 10 -22v-96q0 -14 -10 -23q-9 -9 -22 -9v0z" />
    <glyph glyph-name="C" unicode="C" horiz-adv-x="480" 
d="M128 32l-96 96q0 13 9 22q9 10 23 10l96 -96q0 -14 -10 -23q-9 -9 -22 -9v0zM288 32q-14 0 -23 9t-9 23l96 96q13 0 22 -10q10 -9 10 -22l-96 -96v0zM352 160l-96 96q0 13 9 22q9 10 23 10l96 -96q0 -14 -10 -23q-9 -9 -22 -9v0zM320 288q-14 0 -23 9t-9 23q0 13 9 22
q9 10 23 10h96q13 0 22 -10q10 -9 10 -22q0 -14 -10 -23q-9 -9 -22 -9h-96zM224 320q-14 0 -23 9t-9 23v96q0 13 9 22q9 10 23 10q13 0 22 -10q10 -9 10 -22v-96q0 -14 -10 -23q-9 -9 -22 -9v0z" />
    <glyph glyph-name="D" unicode="D" horiz-adv-x="416" 
d="M96 64l-96 96q0 13 9 22q9 10 23 10l96 -96q0 -14 -10 -23q-9 -9 -22 -9v0zM256 64q-14 0 -23 9t-9 23l96 96q13 0 22 -10q10 -9 10 -22l-96 -96v0zM256 256q-14 0 -23 9t-9 23q0 13 9 22q9 10 23 10h96q13 0 22 -10q10 -9 10 -22q0 -14 -10 -23q-9 -9 -22 -9h-96z
M160 288q-14 0 -23 9t-9 23v96q0 13 9 22q9 10 23 10q13 0 22 -10q10 -9 10 -22v-96q0 -14 -10 -23q-9 -9 -22 -9v0z" />
    <glyph glyph-name="E" unicode="E" 
d="M160 0q-14 0 -23 9t-9 23v96q0 13 9 22q9 10 23 10q13 0 22 -10q10 -9 10 -22v-96q0 -14 -10 -23q-9 -9 -22 -9v0zM96 160l-96 96q0 13 9 22q9 10 23 10l96 -96q0 -14 -10 -23q-9 -9 -22 -9v0zM224 160q-14 0 -23 9t-9 23l96 96q13 0 22 -10q10 -9 10 -22l-96 -96v0z
M288 288l-96 96q0 13 9 22q9 10 23 10l96 -96q0 -14 -10 -23q-9 -9 -22 -9v0zM160 416q-14 0 -23 9t-9 23v96q0 13 9 22q9 10 23 10q13 0 22 -10q10 -9 10 -22v-96q0 -14 -10 -23q-9 -9 -22 -9v0z" />
    <glyph glyph-name="F" unicode="F" horiz-adv-x="384" 
d="M160 0q-14 0 -23 9t-9 23v96q0 13 9 22q9 10 23 10q13 0 22 -10q10 -9 10 -22v-96q0 -14 -10 -23q-9 -9 -22 -9v0zM96 160l-96 96q0 13 9 22q9 10 23 10l96 -96q0 -14 -10 -23q-9 -9 -22 -9v0zM224 160q-14 0 -23 9t-9 23l96 96q13 0 22 -10q10 -9 10 -22l-96 -96v0z
M288 288l-96 96q0 13 9 22q9 10 23 10l96 -96q0 -14 -10 -23q-9 -9 -22 -9v0zM224 416q-14 0 -23 9t-9 23q0 13 9 22q9 10 23 10h96q13 0 22 -10q10 -9 10 -22q0 -14 -10 -23q-9 -9 -22 -9h-96zM160 448q-14 0 -23 9t-9 23v96q0 13 9 22q9 10 23 10q13 0 22 -10
q10 -9 10 -22v-96q0 -14 -10 -23q-9 -9 -22 -9v0z" />
    <glyph glyph-name="G" unicode="G" horiz-adv-x="384" 
d="M256 448q-14 0 -23 9t-9 23l96 96q13 0 22 -10q10 -9 10 -22l-96 -96v0zM160 448q-14 0 -23 9t-9 23v96q0 13 9 22q9 10 23 10q13 0 22 -10q10 -9 10 -22v-96q0 -14 -10 -23q-9 -9 -22 -9v0z" />
    <glyph glyph-name="H" unicode="H" horiz-adv-x="256" 
d="M64 0q-14 0 -23 9t-9 23v96q0 13 9 22q9 10 23 10q13 0 22 -10q10 -9 10 -22v-96q0 -14 -10 -23q-9 -9 -22 -9v0zM128 160q-14 0 -23 9t-9 23l96 96q13 0 22 -10q10 -9 10 -22l-96 -96v0zM192 288l-96 96q0 13 9 22q9 10 23 10l96 -96q0 -14 -10 -23q-9 -9 -22 -9v0z
M64 416q-14 0 -23 9t-9 23v96q0 13 9 22q9 10 23 10q13 0 22 -10q10 -9 10 -22v-96q0 -14 -10 -23q-9 -9 -22 -9v0z" />
    <glyph glyph-name="I" unicode="I" 
d="M160 0q-14 0 -23 9t-9 23v96q0 13 9 22q9 10 23 10q13 0 22 -10q10 -9 10 -22v-96q0 -14 -10 -23q-9 -9 -22 -9v0zM96 160l-96 96q0 13 9 22q9 10 23 10l96 -96q0 -14 -10 -23q-9 -9 -22 -9v0zM224 160q-14 0 -23 9t-9 23l96 96q13 0 22 -10q10 -9 10 -22l-96 -96v0z
M288 288l-96 96q0 13 9 22q9 10 23 10l96 -96q0 -14 -10 -23q-9 -9 -22 -9v0z" />
    <glyph glyph-name="J" unicode="J" 
d="M160 0q-14 0 -23 9t-9 23v96q0 13 9 22q9 10 23 10q13 0 22 -10q10 -9 10 -22v-96q0 -14 -10 -23q-9 -9 -22 -9v0zM96 160l-96 96q0 13 9 22q9 10 23 10l96 -96q0 -14 -10 -23q-9 -9 -22 -9v0zM224 160q-14 0 -23 9t-9 23l96 96q13 0 22 -10q10 -9 10 -22l-96 -96v0z
M224 384q-14 0 -23 9t-9 23l96 96q13 0 22 -10q10 -9 10 -22l-96 -96v0zM160 384q-14 0 -23 9t-9 23v96q0 13 9 22q9 10 23 10q13 0 22 -10q10 -9 10 -22v-96q0 -14 -10 -23q-9 -9 -22 -9v0z" />
    <glyph glyph-name="K" unicode="K" 
d="M224 160q-14 0 -23 9t-9 23l96 96q13 0 22 -10q10 -9 10 -22l-96 -96v0zM160 384q-14 0 -23 9t-9 23v96q0 13 9 22q9 10 23 10q13 0 22 -10q10 -9 10 -22v-96q0 -14 -10 -23q-9 -9 -22 -9v0z" />
    <glyph glyph-name="L" unicode="L" 
d="M160 0q-14 0 -23 9t-9 23v96q0 13 9 22q9 10 23 10q13 0 22 -10q10 -9 10 -22v-96q0 -14 -10 -23q-9 -9 -22 -9v0zM96 160l-96 96q0 13 9 22q9 10 23 10l96 -96q0 -14 -10 -23q-9 -9 -22 -9v0zM224 160q-14 0 -23 9t-9 23l96 96q13 0 22 -10q10 -9 10 -22l-96 -96v0z
M288 288l-96 96q0 13 9 22q9 10 23 10l96 -96q0 -14 -10 -23q-9 -9 -22 -9v0zM224 416q-14 0 -23 9t-9 23l96 96q13 0 22 -10q10 -9 10 -22l-96 -96v0zM160 416q-14 0 -23 9t-9 23v96q0 13 9 22q9 10 23 10q13 0 22 -10q10 -9 10 -22v-96q0 -14 -10 -23q-9 -9 -22 -9v0z" />
    <glyph glyph-name="M" unicode="M" horiz-adv-x="320" 
d="M256 256l-96 96q0 13 9 22q9 10 23 10l96 -96q0 -14 -10 -23q-9 -9 -22 -9v0zM192 416q-14 0 -23 9t-9 23l96 96q13 0 22 -10q10 -9 10 -22l-96 -96v0zM128 416q-14 0 -23 9t-9 23v96q0 13 9 22q9 10 23 10q13 0 22 -10q10 -9 10 -22v-96q0 -14 -10 -23q-9 -9 -22 -9v0z
" />
    <glyph glyph-name="N" unicode="N" 
d="M256 224l-96 96q0 13 9 22q9 10 23 10l96 -96q0 -14 -10 -23q-9 -9 -22 -9v0zM192 352q-14 0 -23 9t-9 23q0 13 9 22q9 10 23 10h96q13 0 22 -10q10 -9 10 -22q0 -14 -10 -23q-9 -9 -22 -9h-96zM192 416q-14 0 -23 9t-9 23l96 96q13 0 22 -10q10 -9 10 -22l-96 -96v0z
M128 416q-14 0 -23 9t-9 23v96q0 13 9 22q9 10 23 10q13 0 22 -10q10 -9 10 -22v-96q0 -14 -10 -23q-9 -9 -22 -9v0z" />
    <glyph glyph-name="O" unicode="O" 
d="M160 0q-14 0 -23 9t-9 23v96q0 13 9 22q9 10 23 10q13 0 22 -10q10 -9 10 -22v-96q0 -14 -10 -23q-9 -9 -22 -9v0zM96 160l-96 96q0 13 9 22q9 10 23 10l96 -96q0 -14 -10 -23q-9 -9 -22 -9v0zM224 160q-14 0 -23 9t-9 23l96 96q13 0 22 -10q10 -9 10 -22l-96 -96v0z
M160 384q-14 0 -23 9t-9 23v96q0 13 9 22q9 10 23 10q13 0 22 -10q10 -9 10 -22v-96q0 -14 -10 -23q-9 -9 -22 -9v0z" />
    <glyph glyph-name="P" unicode="P" 
d="M160 0q-14 0 -23 9t-9 23v96q0 13 9 22q9 10 23 10q13 0 22 -10q10 -9 10 -22v-96q0 -14 -10 -23q-9 -9 -22 -9v0zM96 160l-96 96q0 13 9 22q9 10 23 10l96 -96q0 -14 -10 -23q-9 -9 -22 -9v0zM288 256l-96 96q0 13 9 22q9 10 23 10l96 -96q0 -14 -10 -23q-9 -9 -22 -9v0
zM224 416q-14 0 -23 9t-9 23l96 96q13 0 22 -10q10 -9 10 -22l-96 -96v0zM160 416q-14 0 -23 9t-9 23v96q0 13 9 22q9 10 23 10q13 0 22 -10q10 -9 10 -22v-96q0 -14 -10 -23q-9 -9 -22 -9v0z" />
    <glyph glyph-name="Q" unicode="Q" horiz-adv-x="448" 
d="M128 96l-96 96q0 13 9 22q9 10 23 10l96 -96q0 -14 -10 -23q-9 -9 -22 -9v0zM288 96q-14 0 -23 9t-9 23l96 96q13 0 22 -10q10 -9 10 -22l-96 -96v0zM352 224l-96 96q0 13 9 22q9 10 23 10l96 -96q0 -14 -10 -23q-9 -9 -22 -9v0zM288 352q-14 0 -23 9t-9 23q0 13 9 22
q9 10 23 10h96q13 0 22 -10q10 -9 10 -22q0 -14 -10 -23q-9 -9 -22 -9h-96zM256 416q-14 0 -23 9t-9 23l96 96q13 0 22 -10q10 -9 10 -22l-96 -96v0zM192 416q-14 0 -23 9t-9 23v96q0 13 9 22q9 10 23 10q13 0 22 -10q10 -9 10 -22v-96q0 -14 -10 -23q-9 -9 -22 -9v0z" />
    <glyph glyph-name="R" unicode="R" horiz-adv-x="256" 
d="M32 0q-14 0 -23 9t-9 23v96q0 13 9 22q9 10 23 10q13 0 22 -10q10 -9 10 -22v-96q0 -14 -10 -23q-9 -9 -22 -9v0zM160 224l-96 96q0 13 9 22q9 10 23 10l96 -96q0 -14 -10 -23q-9 -9 -22 -9v0zM96 352q-14 0 -23 9t-9 23q0 13 9 22q9 10 23 10h96q13 0 22 -10
q10 -9 10 -22q0 -14 -10 -23q-9 -9 -22 -9h-96zM96 416q-14 0 -23 9t-9 23l96 96q13 0 22 -10q10 -9 10 -22l-96 -96v0zM32 416q-14 0 -23 9t-9 23v96q0 13 9 22q9 10 23 10q13 0 22 -10q10 -9 10 -22v-96q0 -14 -10 -23q-9 -9 -22 -9v0z" />
    <glyph glyph-name="S" unicode="S" horiz-adv-x="448" 
d="M96 96l-96 96q0 13 9 22q9 10 23 10l96 -96q0 -14 -10 -23q-9 -9 -22 -9v0zM288 96q-14 0 -23 9t-9 23l96 96q13 0 22 -10q10 -9 10 -22l-96 -96v0zM352 224l-96 96q0 13 9 22q9 10 23 10l96 -96q0 -14 -10 -23q-9 -9 -22 -9v0zM288 352q-14 0 -23 9t-9 23q0 13 9 22
q9 10 23 10h96q13 0 22 -10q10 -9 10 -22q0 -14 -10 -23q-9 -9 -22 -9h-96zM256 448q-14 0 -23 9t-9 23l96 96q13 0 22 -10q10 -9 10 -22l-96 -96v0z" />
    <glyph glyph-name="T" unicode="T" 
d="M160 0q-14 0 -23 9t-9 23v96q0 13 9 22q9 10 23 10q13 0 22 -10q10 -9 10 -22v-96q0 -14 -10 -23q-9 -9 -22 -9v0zM96 160l-96 96q0 13 9 22q9 10 23 10l96 -96q0 -14 -10 -23q-9 -9 -22 -9v0zM256 256l-96 96q0 13 9 22q9 10 23 10l96 -96q0 -14 -10 -23q-9 -9 -22 -9v0
zM192 384q-14 0 -23 9t-9 23q0 13 9 22q9 10 23 10h96q13 0 22 -10q10 -9 10 -22q0 -14 -10 -23q-9 -9 -22 -9h-96z" />
    <glyph glyph-name="U" unicode="U" horiz-adv-x="288" 
d="M32 0q-14 0 -23 9t-9 23v96q0 13 9 22q9 10 23 10q13 0 22 -10q10 -9 10 -22v-96q0 -14 -10 -23q-9 -9 -22 -9v0zM128 384q-14 0 -23 9t-9 23q0 13 9 22q9 10 23 10h96q13 0 22 -10q10 -9 10 -22q0 -14 -10 -23q-9 -9 -22 -9h-96zM32 416q-14 0 -23 9t-9 23v96q0 13 9 22
q9 10 23 10q13 0 22 -10q10 -9 10 -22v-96q0 -14 -10 -23q-9 -9 -22 -9v0z" />
    <glyph glyph-name="V" unicode="V" horiz-adv-x="256" 
d="M64 0q-14 0 -23 9t-9 23v96q0 13 9 22q9 10 23 10q13 0 22 -10q10 -9 10 -22v-96q0 -14 -10 -23q-9 -9 -22 -9v0zM96 160q-14 0 -23 9t-9 23l96 96q13 0 22 -10q10 -9 10 -22l-96 -96v0zM160 288l-96 96q0 13 9 22q9 10 23 10l96 -96q0 -14 -10 -23q-9 -9 -22 -9v0z
M96 416q-14 0 -23 9t-9 23q0 13 9 22q9 10 23 10h96q13 0 22 -10q10 -9 10 -22q0 -14 -10 -23q-9 -9 -22 -9h-96zM96 480q-14 0 -23 9t-9 23l96 96q13 0 22 -10q10 -9 10 -22l-96 -96v0zM32 480q-14 0 -23 9t-9 23v96q0 13 9 22q9 10 23 10q13 0 22 -10q10 -9 10 -22v-96
q0 -14 -10 -23q-9 -9 -22 -9v0z" />
    <glyph glyph-name="W" unicode="W" horiz-adv-x="448" 
d="M128 224l-96 96q0 13 9 22q9 10 23 10l96 -96q0 -14 -10 -23q-9 -9 -22 -9v0zM384 256l-96 96q0 13 9 22q9 10 23 10l96 -96q0 -14 -10 -23q-9 -9 -22 -9v0zM320 416q-14 0 -23 9t-9 23l96 96q13 0 22 -10q10 -9 10 -22l-96 -96v0zM256 416q-14 0 -23 9t-9 23v96
q0 13 9 22q9 10 23 10q13 0 22 -10q10 -9 10 -22v-96q0 -14 -10 -23q-9 -9 -22 -9v0z" />
    <glyph glyph-name="X" unicode="X" horiz-adv-x="224" 
d="M160 0q-14 0 -23 9t-9 23v96q0 13 9 22q9 10 23 10q13 0 22 -10q10 -9 10 -22v-96q0 -14 -10 -23q-9 -9 -22 -9v0zM96 160l-96 96q0 13 9 22q9 10 23 10l96 -96q0 -14 -10 -23q-9 -9 -22 -9v0z" />
    <glyph glyph-name="Y" unicode="Y" horiz-adv-x="480" 
d="M128 96l-96 96q0 13 9 22q9 10 23 10l96 -96q0 -14 -10 -23q-9 -9 -22 -9v0zM320 96q-14 0 -23 9t-9 23l96 96q13 0 22 -10q10 -9 10 -22l-96 -96v0zM384 224l-96 96q0 13 9 22q9 10 23 10l96 -96q0 -14 -10 -23q-9 -9 -22 -9v0zM320 352q-14 0 -23 9t-9 23q0 13 9 22
q9 10 23 10h96q13 0 22 -10q10 -9 10 -22q0 -14 -10 -23q-9 -9 -22 -9h-96z" />
    <glyph glyph-name="Z" unicode="Z" horiz-adv-x="384" 
d="M160 0q-14 0 -23 9t-9 23v96q0 13 9 22q9 10 23 10q13 0 22 -10q10 -9 10 -22v-96q0 -14 -10 -23q-9 -9 -22 -9v0zM96 160l-96 96q0 13 9 22q9 10 23 10l96 -96q0 -14 -10 -23q-9 -9 -22 -9v0zM224 160q-14 0 -23 9t-9 23l96 96q13 0 22 -10q10 -9 10 -22l-96 -96v0z
M288 288l-96 96q0 13 9 22q9 10 23 10l96 -96q0 -14 -10 -23q-9 -9 -22 -9v0zM224 416q-14 0 -23 9t-9 23q0 13 9 22q9 10 23 10h96q13 0 22 -10q10 -9 10 -22q0 -14 -10 -23q-9 -9 -22 -9h-96zM224 480q-14 0 -23 9t-9 23l96 96q13 0 22 -10q10 -9 10 -22l-96 -96v0z
M160 480q-14 0 -23 9t-9 23v96q0 13 9 22q9 10 23 10q13 0 22 -10q10 -9 10 -22v-96q0 -14 -10 -23q-9 -9 -22 -9v0z" />
    <glyph glyph-name="a" unicode="a" horiz-adv-x="288" 
d="M32 0q-14 0 -23 9t-9 23v96q0 13 9 22q9 10 23 10q13 0 22 -10q10 -9 10 -22v-96q0 -14 -10 -23q-9 -9 -22 -9v0zM96 160q-14 0 -23 9t-9 23l96 96q13 0 22 -10q10 -9 10 -22l-96 -96v0zM160 288l-96 96q0 13 9 22q9 10 23 10l96 -96q0 -14 -10 -23q-9 -9 -22 -9v0z
M160 416q-14 0 -23 9t-9 23l96 96q13 0 22 -10q10 -9 10 -22l-96 -96v0zM64 416q-14 0 -23 9t-9 23v96q0 13 9 22q9 10 23 10q13 0 22 -10q10 -9 10 -22v-96q0 -14 -10 -23q-9 -9 -22 -9v0z" />
    <glyph glyph-name="b" unicode="b" horiz-adv-x="288" 
d="M160 160l-96 96q0 13 9 22q9 10 23 10l96 -96q0 -14 -10 -23q-9 -9 -22 -9v0zM128 320q-14 0 -23 9t-9 23q0 13 9 22q9 10 23 10h96q13 0 22 -10q10 -9 10 -22q0 -14 -10 -23q-9 -9 -22 -9h-96zM32 352q-14 0 -23 9t-9 23v96q0 13 9 22q9 10 23 10q13 0 22 -10
q10 -9 10 -22v-96q0 -14 -10 -23q-9 -9 -22 -9v0z" />
    <glyph glyph-name="c" unicode="c" horiz-adv-x="480" 
d="M128 32l-96 96q0 13 9 22q9 10 23 10l96 -96q0 -14 -10 -23q-9 -9 -22 -9v0zM288 32q-14 0 -23 9t-9 23l96 96q13 0 22 -10q10 -9 10 -22l-96 -96v0zM352 160l-96 96q0 13 9 22q9 10 23 10l96 -96q0 -14 -10 -23q-9 -9 -22 -9v0zM320 288q-14 0 -23 9t-9 23q0 13 9 22
q9 10 23 10h96q13 0 22 -10q10 -9 10 -22q0 -14 -10 -23q-9 -9 -22 -9h-96zM224 320q-14 0 -23 9t-9 23v96q0 13 9 22q9 10 23 10q13 0 22 -10q10 -9 10 -22v-96q0 -14 -10 -23q-9 -9 -22 -9v0z" />
    <glyph glyph-name="d" unicode="d" horiz-adv-x="416" 
d="M96 64l-96 96q0 13 9 22q9 10 23 10l96 -96q0 -14 -10 -23q-9 -9 -22 -9v0zM256 64q-14 0 -23 9t-9 23l96 96q13 0 22 -10q10 -9 10 -22l-96 -96v0zM256 256q-14 0 -23 9t-9 23q0 13 9 22q9 10 23 10h96q13 0 22 -10q10 -9 10 -22q0 -14 -10 -23q-9 -9 -22 -9h-96z
M160 288q-14 0 -23 9t-9 23v96q0 13 9 22q9 10 23 10q13 0 22 -10q10 -9 10 -22v-96q0 -14 -10 -23q-9 -9 -22 -9v0z" />
    <glyph glyph-name="e" unicode="e" 
d="M160 0q-14 0 -23 9t-9 23v96q0 13 9 22q9 10 23 10q13 0 22 -10q10 -9 10 -22v-96q0 -14 -10 -23q-9 -9 -22 -9v0zM96 160l-96 96q0 13 9 22q9 10 23 10l96 -96q0 -14 -10 -23q-9 -9 -22 -9v0zM224 160q-14 0 -23 9t-9 23l96 96q13 0 22 -10q10 -9 10 -22l-96 -96v0z
M288 288l-96 96q0 13 9 22q9 10 23 10l96 -96q0 -14 -10 -23q-9 -9 -22 -9v0zM160 416q-14 0 -23 9t-9 23v96q0 13 9 22q9 10 23 10q13 0 22 -10q10 -9 10 -22v-96q0 -14 -10 -23q-9 -9 -22 -9v0z" />
    <glyph glyph-name="f" unicode="f" horiz-adv-x="384" 
d="M160 0q-14 0 -23 9t-9 23v96q0 13 9 22q9 10 23 10q13 0 22 -10q10 -9 10 -22v-96q0 -14 -10 -23q-9 -9 -22 -9v0zM96 160l-96 96q0 13 9 22q9 10 23 10l96 -96q0 -14 -10 -23q-9 -9 -22 -9v0zM224 160q-14 0 -23 9t-9 23l96 96q13 0 22 -10q10 -9 10 -22l-96 -96v0z
M288 288l-96 96q0 13 9 22q9 10 23 10l96 -96q0 -14 -10 -23q-9 -9 -22 -9v0zM224 416q-14 0 -23 9t-9 23q0 13 9 22q9 10 23 10h96q13 0 22 -10q10 -9 10 -22q0 -14 -10 -23q-9 -9 -22 -9h-96zM160 448q-14 0 -23 9t-9 23v96q0 13 9 22q9 10 23 10q13 0 22 -10
q10 -9 10 -22v-96q0 -14 -10 -23q-9 -9 -22 -9v0z" />
    <glyph glyph-name="g" unicode="g" horiz-adv-x="384" 
d="M256 448q-14 0 -23 9t-9 23l96 96q13 0 22 -10q10 -9 10 -22l-96 -96v0zM160 448q-14 0 -23 9t-9 23v96q0 13 9 22q9 10 23 10q13 0 22 -10q10 -9 10 -22v-96q0 -14 -10 -23q-9 -9 -22 -9v0z" />
    <glyph glyph-name="h" unicode="h" horiz-adv-x="256" 
d="M64 0q-14 0 -23 9t-9 23v96q0 13 9 22q9 10 23 10q13 0 22 -10q10 -9 10 -22v-96q0 -14 -10 -23q-9 -9 -22 -9v0zM128 160q-14 0 -23 9t-9 23l96 96q13 0 22 -10q10 -9 10 -22l-96 -96v0zM192 288l-96 96q0 13 9 22q9 10 23 10l96 -96q0 -14 -10 -23q-9 -9 -22 -9v0z
M64 416q-14 0 -23 9t-9 23v96q0 13 9 22q9 10 23 10q13 0 22 -10q10 -9 10 -22v-96q0 -14 -10 -23q-9 -9 -22 -9v0z" />
    <glyph glyph-name="i" unicode="i" 
d="M160 0q-14 0 -23 9t-9 23v96q0 13 9 22q9 10 23 10q13 0 22 -10q10 -9 10 -22v-96q0 -14 -10 -23q-9 -9 -22 -9v0zM96 160l-96 96q0 13 9 22q9 10 23 10l96 -96q0 -14 -10 -23q-9 -9 -22 -9v0zM224 160q-14 0 -23 9t-9 23l96 96q13 0 22 -10q10 -9 10 -22l-96 -96v0z
M288 288l-96 96q0 13 9 22q9 10 23 10l96 -96q0 -14 -10 -23q-9 -9 -22 -9v0z" />
    <glyph glyph-name="j" unicode="j" 
d="M160 0q-14 0 -23 9t-9 23v96q0 13 9 22q9 10 23 10q13 0 22 -10q10 -9 10 -22v-96q0 -14 -10 -23q-9 -9 -22 -9v0zM96 160l-96 96q0 13 9 22q9 10 23 10l96 -96q0 -14 -10 -23q-9 -9 -22 -9v0zM224 160q-14 0 -23 9t-9 23l96 96q13 0 22 -10q10 -9 10 -22l-96 -96v0z
M224 384q-14 0 -23 9t-9 23l96 96q13 0 22 -10q10 -9 10 -22l-96 -96v0zM160 384q-14 0 -23 9t-9 23v96q0 13 9 22q9 10 23 10q13 0 22 -10q10 -9 10 -22v-96q0 -14 -10 -23q-9 -9 -22 -9v0z" />
    <glyph glyph-name="k" unicode="k" 
d="M224 160q-14 0 -23 9t-9 23l96 96q13 0 22 -10q10 -9 10 -22l-96 -96v0zM160 384q-14 0 -23 9t-9 23v96q0 13 9 22q9 10 23 10q13 0 22 -10q10 -9 10 -22v-96q0 -14 -10 -23q-9 -9 -22 -9v0z" />
    <glyph glyph-name="l" unicode="l" 
d="M160 0q-14 0 -23 9t-9 23v96q0 13 9 22q9 10 23 10q13 0 22 -10q10 -9 10 -22v-96q0 -14 -10 -23q-9 -9 -22 -9v0zM96 160l-96 96q0 13 9 22q9 10 23 10l96 -96q0 -14 -10 -23q-9 -9 -22 -9v0zM224 160q-14 0 -23 9t-9 23l96 96q13 0 22 -10q10 -9 10 -22l-96 -96v0z
M288 288l-96 96q0 13 9 22q9 10 23 10l96 -96q0 -14 -10 -23q-9 -9 -22 -9v0zM224 416q-14 0 -23 9t-9 23l96 96q13 0 22 -10q10 -9 10 -22l-96 -96v0zM160 416q-14 0 -23 9t-9 23v96q0 13 9 22q9 10 23 10q13 0 22 -10q10 -9 10 -22v-96q0 -14 -10 -23q-9 -9 -22 -9v0z" />
    <glyph glyph-name="m" unicode="m" horiz-adv-x="320" 
d="M256 256l-96 96q0 13 9 22q9 10 23 10l96 -96q0 -14 -10 -23q-9 -9 -22 -9v0zM192 416q-14 0 -23 9t-9 23l96 96q13 0 22 -10q10 -9 10 -22l-96 -96v0zM128 416q-14 0 -23 9t-9 23v96q0 13 9 22q9 10 23 10q13 0 22 -10q10 -9 10 -22v-96q0 -14 -10 -23q-9 -9 -22 -9v0z
" />
    <glyph glyph-name="n" unicode="n" 
d="M256 224l-96 96q0 13 9 22q9 10 23 10l96 -96q0 -14 -10 -23q-9 -9 -22 -9v0zM192 352q-14 0 -23 9t-9 23q0 13 9 22q9 10 23 10h96q13 0 22 -10q10 -9 10 -22q0 -14 -10 -23q-9 -9 -22 -9h-96zM192 416q-14 0 -23 9t-9 23l96 96q13 0 22 -10q10 -9 10 -22l-96 -96v0z
M128 416q-14 0 -23 9t-9 23v96q0 13 9 22q9 10 23 10q13 0 22 -10q10 -9 10 -22v-96q0 -14 -10 -23q-9 -9 -22 -9v0z" />
    <glyph glyph-name="o" unicode="o" 
d="M160 0q-14 0 -23 9t-9 23v96q0 13 9 22q9 10 23 10q13 0 22 -10q10 -9 10 -22v-96q0 -14 -10 -23q-9 -9 -22 -9v0zM96 160l-96 96q0 13 9 22q9 10 23 10l96 -96q0 -14 -10 -23q-9 -9 -22 -9v0zM224 160q-14 0 -23 9t-9 23l96 96q13 0 22 -10q10 -9 10 -22l-96 -96v0z
M160 384q-14 0 -23 9t-9 23v96q0 13 9 22q9 10 23 10q13 0 22 -10q10 -9 10 -22v-96q0 -14 -10 -23q-9 -9 -22 -9v0z" />
    <glyph glyph-name="p" unicode="p" 
d="M160 0q-14 0 -23 9t-9 23v96q0 13 9 22q9 10 23 10q13 0 22 -10q10 -9 10 -22v-96q0 -14 -10 -23q-9 -9 -22 -9v0zM96 160l-96 96q0 13 9 22q9 10 23 10l96 -96q0 -14 -10 -23q-9 -9 -22 -9v0zM288 256l-96 96q0 13 9 22q9 10 23 10l96 -96q0 -14 -10 -23q-9 -9 -22 -9v0
zM224 416q-14 0 -23 9t-9 23l96 96q13 0 22 -10q10 -9 10 -22l-96 -96v0zM160 416q-14 0 -23 9t-9 23v96q0 13 9 22q9 10 23 10q13 0 22 -10q10 -9 10 -22v-96q0 -14 -10 -23q-9 -9 -22 -9v0z" />
    <glyph glyph-name="q" unicode="q" horiz-adv-x="448" 
d="M128 96l-96 96q0 13 9 22q9 10 23 10l96 -96q0 -14 -10 -23q-9 -9 -22 -9v0zM288 96q-14 0 -23 9t-9 23l96 96q13 0 22 -10q10 -9 10 -22l-96 -96v0zM352 224l-96 96q0 13 9 22q9 10 23 10l96 -96q0 -14 -10 -23q-9 -9 -22 -9v0zM288 352q-14 0 -23 9t-9 23q0 13 9 22
q9 10 23 10h96q13 0 22 -10q10 -9 10 -22q0 -14 -10 -23q-9 -9 -22 -9h-96zM256 416q-14 0 -23 9t-9 23l96 96q13 0 22 -10q10 -9 10 -22l-96 -96v0zM192 416q-14 0 -23 9t-9 23v96q0 13 9 22q9 10 23 10q13 0 22 -10q10 -9 10 -22v-96q0 -14 -10 -23q-9 -9 -22 -9v0z" />
    <glyph glyph-name="r" unicode="r" horiz-adv-x="256" 
d="M32 0q-14 0 -23 9t-9 23v96q0 13 9 22q9 10 23 10q13 0 22 -10q10 -9 10 -22v-96q0 -14 -10 -23q-9 -9 -22 -9v0zM160 224l-96 96q0 13 9 22q9 10 23 10l96 -96q0 -14 -10 -23q-9 -9 -22 -9v0zM96 352q-14 0 -23 9t-9 23q0 13 9 22q9 10 23 10h96q13 0 22 -10
q10 -9 10 -22q0 -14 -10 -23q-9 -9 -22 -9h-96zM96 416q-14 0 -23 9t-9 23l96 96q13 0 22 -10q10 -9 10 -22l-96 -96v0zM32 416q-14 0 -23 9t-9 23v96q0 13 9 22q9 10 23 10q13 0 22 -10q10 -9 10 -22v-96q0 -14 -10 -23q-9 -9 -22 -9v0z" />
    <glyph glyph-name="s" unicode="s" horiz-adv-x="448" 
d="M96 96l-96 96q0 13 9 22q9 10 23 10l96 -96q0 -14 -10 -23q-9 -9 -22 -9v0zM288 96q-14 0 -23 9t-9 23l96 96q13 0 22 -10q10 -9 10 -22l-96 -96v0zM352 224l-96 96q0 13 9 22q9 10 23 10l96 -96q0 -14 -10 -23q-9 -9 -22 -9v0zM288 352q-14 0 -23 9t-9 23q0 13 9 22
q9 10 23 10h96q13 0 22 -10q10 -9 10 -22q0 -14 -10 -23q-9 -9 -22 -9h-96zM256 448q-14 0 -23 9t-9 23l96 96q13 0 22 -10q10 -9 10 -22l-96 -96v0z" />
    <glyph glyph-name="t" unicode="t" 
d="M160 0q-14 0 -23 9t-9 23v96q0 13 9 22q9 10 23 10q13 0 22 -10q10 -9 10 -22v-96q0 -14 -10 -23q-9 -9 -22 -9v0zM96 160l-96 96q0 13 9 22q9 10 23 10l96 -96q0 -14 -10 -23q-9 -9 -22 -9v0zM256 256l-96 96q0 13 9 22q9 10 23 10l96 -96q0 -14 -10 -23q-9 -9 -22 -9v0
zM192 384q-14 0 -23 9t-9 23q0 13 9 22q9 10 23 10h96q13 0 22 -10q10 -9 10 -22q0 -14 -10 -23q-9 -9 -22 -9h-96z" />
    <glyph glyph-name="u" unicode="u" horiz-adv-x="288" 
d="M32 0q-14 0 -23 9t-9 23v96q0 13 9 22q9 10 23 10q13 0 22 -10q10 -9 10 -22v-96q0 -14 -10 -23q-9 -9 -22 -9v0zM128 384q-14 0 -23 9t-9 23q0 13 9 22q9 10 23 10h96q13 0 22 -10q10 -9 10 -22q0 -14 -10 -23q-9 -9 -22 -9h-96zM32 416q-14 0 -23 9t-9 23v96q0 13 9 22
q9 10 23 10q13 0 22 -10q10 -9 10 -22v-96q0 -14 -10 -23q-9 -9 -22 -9v0z" />
    <glyph glyph-name="v" unicode="v" horiz-adv-x="256" 
d="M64 0q-14 0 -23 9t-9 23v96q0 13 9 22q9 10 23 10q13 0 22 -10q10 -9 10 -22v-96q0 -14 -10 -23q-9 -9 -22 -9v0zM96 160q-14 0 -23 9t-9 23l96 96q13 0 22 -10q10 -9 10 -22l-96 -96v0zM160 288l-96 96q0 13 9 22q9 10 23 10l96 -96q0 -14 -10 -23q-9 -9 -22 -9v0z
M96 416q-14 0 -23 9t-9 23q0 13 9 22q9 10 23 10h96q13 0 22 -10q10 -9 10 -22q0 -14 -10 -23q-9 -9 -22 -9h-96zM96 480q-14 0 -23 9t-9 23l96 96q13 0 22 -10q10 -9 10 -22l-96 -96v0zM32 480q-14 0 -23 9t-9 23v96q0 13 9 22q9 10 23 10q13 0 22 -10q10 -9 10 -22v-96
q0 -14 -10 -23q-9 -9 -22 -9v0z" />
    <glyph glyph-name="w" unicode="w" horiz-adv-x="448" 
d="M128 224l-96 96q0 13 9 22q9 10 23 10l96 -96q0 -14 -10 -23q-9 -9 -22 -9v0zM384 256l-96 96q0 13 9 22q9 10 23 10l96 -96q0 -14 -10 -23q-9 -9 -22 -9v0zM320 416q-14 0 -23 9t-9 23l96 96q13 0 22 -10q10 -9 10 -22l-96 -96v0zM256 416q-14 0 -23 9t-9 23v96
q0 13 9 22q9 10 23 10q13 0 22 -10q10 -9 10 -22v-96q0 -14 -10 -23q-9 -9 -22 -9v0z" />
    <glyph glyph-name="x" unicode="x" horiz-adv-x="224" 
d="M160 0q-14 0 -23 9t-9 23v96q0 13 9 22q9 10 23 10q13 0 22 -10q10 -9 10 -22v-96q0 -14 -10 -23q-9 -9 -22 -9v0zM96 160l-96 96q0 13 9 22q9 10 23 10l96 -96q0 -14 -10 -23q-9 -9 -22 -9v0z" />
    <glyph glyph-name="y" unicode="y" horiz-adv-x="480" 
d="M128 96l-96 96q0 13 9 22q9 10 23 10l96 -96q0 -14 -10 -23q-9 -9 -22 -9v0zM320 96q-14 0 -23 9t-9 23l96 96q13 0 22 -10q10 -9 10 -22l-96 -96v0zM384 224l-96 96q0 13 9 22q9 10 23 10l96 -96q0 -14 -10 -23q-9 -9 -22 -9v0zM320 352q-14 0 -23 9t-9 23q0 13 9 22
q9 10 23 10h96q13 0 22 -10q10 -9 10 -22q0 -14 -10 -23q-9 -9 -22 -9h-96z" />
    <glyph glyph-name="z" unicode="z" horiz-adv-x="384" 
d="M160 0q-14 0 -23 9t-9 23v96q0 13 9 22q9 10 23 10q13 0 22 -10q10 -9 10 -22v-96q0 -14 -10 -23q-9 -9 -22 -9v0zM96 160l-96 96q0 13 9 22q9 10 23 10l96 -96q0 -14 -10 -23q-9 -9 -22 -9v0zM224 160q-14 0 -23 9t-9 23l96 96q13 0 22 -10q10 -9 10 -22l-96 -96v0z
M288 288l-96 96q0 13 9 22q9 10 23 10l96 -96q0 -14 -10 -23q-9 -9 -22 -9v0zM224 416q-14 0 -23 9t-9 23q0 13 9 22q9 10 23 10h96q13 0 22 -10q10 -9 10 -22q0 -14 -10 -23q-9 -9 -22 -9h-96zM224 480q-14 0 -23 9t-9 23l96 96q13 0 22 -10q10 -9 10 -22l-96 -96v0z
M160 480q-14 0 -23 9t-9 23v96q0 13 9 22q9 10 23 10q13 0 22 -10q10 -9 10 -22v-96q0 -14 -10 -23q-9 -9 -22 -9v0z" />
  </font>
</defs>
</svg>
